<?xml version="1.0" encoding="UTF-8"?>
<!DOCTYPE svg PUBLIC "-//W3C//DTD SVG 1.1//EN" "http://www.w3.org/Graphics/SVG/1.1/DTD/svg11.dtd">
<!-- Creator: CorelDRAW X7 -->
<svg xmlns="http://www.w3.org/2000/svg" xml:space="preserve" width="300mm" height="424.286mm" version="1.1" style="shape-rendering:geometricPrecision; text-rendering:geometricPrecision; image-rendering:optimizeQuality; fill-rule:evenodd; clip-rule:evenodd"
viewBox="0 0 30000 42429"
 xmlns:xlink="http://www.w3.org/1999/xlink">
 <defs>
  <style type="text/css">
   <![CDATA[
    .fil3 {fill:#06558C}
    .fil0 {fill:#1EA1F2}
    .fil1 {fill:#EE6B38}
    .fil2 {fill:#F4BBA5}
   ]]>
  </style>
 </defs>
 <g id="Layer_x0020_1">
  <metadata id="CorelCorpID_0Corel-Layer"/>
  <g id="_2594247969392">
   <path class="fil0" d="M9989 15085c234,-185 565,-164 780,38 95,89 160,232 160,371 5,356 -185,633 -554,642 -611,15 -772,-747 -386,-1051zm-942 1608l551 -19 14 -198c-55,-50 -126,-92 -170,-159 -35,-53 -70,-120 -103,-176 -57,-120 -106,-247 -104,-382 71,231 281,747 773,860 856,256 1237,-364 1317,-449 172,-252 169,-502 153,-794 -67,-372 -290,-667 -589,-820 -170,-87 -338,-134 -575,-128 -145,3 -483,84 -546,163 -68,24 -76,52 -123,73 -15,18 5,15 -39,25 -27,-333 24,-708 -15,-1037 -110,-3 -506,-21 -577,10l33 3031z"/>
   <path class="fil0" d="M16637 15362c14,-242 264,-424 535,-425 285,-2 519,192 531,426l-1066 -1zm1603 426c134,-486 -184,-1155 -745,-1306 -985,-264 -1686,661 -1355,1523 212,553 846,781 1384,651 223,-53 578,-250 619,-424 -44,-42 -355,-221 -427,-251 -80,65 -124,127 -250,170 -119,40 -242,45 -370,26 -220,-33 -432,-186 -449,-384l1593 -5z"/>
   <path class="fil0" d="M12051 16966c-18,68 -8,418 -5,510 360,53 696,-145 856,-350 195,-250 271,-513 390,-831 113,-305 220,-596 326,-895l242 -665c28,-70 63,-161 81,-231l-579 -5c-54,75 -331,1000 -414,1236 -20,56 -42,135 -62,177 -63,-85 -502,-1340 -564,-1410l-590 -2 285 682c56,116 96,232 144,340 48,111 94,224 143,340l289 679c18,84 -115,259 -166,304 -114,101 -186,106 -376,121z"/>
   <path class="fil0" d="M14232 15026l370 5 2 161c5,918 -163,1576 1031,1436l-1 -492c-228,-24 -480,54 -480,-219l6 -889 475 -6 0 -522 -480 -3 -3 -578c-65,-3 -488,119 -547,160l-4 419 -368 5 -1 523z"/>
   <path class="fil1" d="M19349 14053c-59,-52 -202,-287 -273,-363l-435 -2c16,109 464,635 468,693 -16,66 -90,139 -120,184 -74,110 -370,494 -379,553l401 2c77,-5 48,-15 156,-159 43,-57 138,-207 182,-240 37,29 121,154 152,198l110 156c51,68 137,45 294,45l181 -1c-7,-54 -431,-635 -502,-726 23,-87 480,-639 484,-707l-392 -2c-88,-1 -86,44 -176,171 -28,41 -117,171 -151,198z"/>
   <path class="fil1" d="M20413 15110l1014 1c6,-90 22,-227 -10,-297 -169,-25 -443,26 -616,-8l-2 -1111 -381 0 -5 1415z"/>
   <path class="fil2" d="M20418 13695l381 0 2 1111c173,34 447,-17 616,8 32,70 16,207 10,297l-1014 -1 5 -1415zm-10 1431l1028 4c23,-58 22,-277 -1,-330l-618 -4c-4,-183 12,-1018 -10,-1112 -64,-18 -333,-15 -403,-3 -21,101 -20,1369 4,1445z"/>
   <path class="fil3" d="M9235 15759c-4,437 318,777 717,908 557,183 1123,-42 1373,-497 -344,391 -837,648 -1429,406 -474,-212 -609,-665 -661,-817z"/>
  </g>
 </g>
</svg>
